<svg xmlns="http://www.w3.org/2000/svg" width="800" height="800" class="icon" viewBox="0 0 1024 1024"><path fill="#8D3F07" d="M15.647 514.755a494.11 494.11 0 1 0 988.221 0 494.11 494.11 0 1 0-988.221 0Z"/><path fill="#FFF" d="M509.757 170.148c-169.845 0-309.929 128.077-332.974 294.4H103.23a48.108 48.108 0 0 0 0 96.215h73.554c23.045 166.323 163.129 294.4 332.974 294.4 185.938 0 336.676-153.344 336.676-342.508 0-189.158-150.733-342.507-336.676-342.507z"/><path fill="#BF5710" d="M254.715 512.655a255.043 255.043 0 1 0 510.085 0 255.043 255.043 0 1 0-510.085 0Z"/><path fill="#8D3F07" d="M688.517 331.392c-.665-.635-1.403-1.157-2.073-1.787l-351.78 368.988c.66.64 1.213 1.352 1.884 1.987 101.95 97.193 263.383 93.337 360.581-8.612 97.193-101.944 93.338-263.383-8.612-360.576z"/></svg>